# xmcd
#
# Track frame offsets: 
#        150
#        16307
#        33575
#        50030
#        68990
#        83125
#        102827
#        136707
#        169987
#        202372
#        220342
#        239960
#        258777
#        276857
#        299247
#        313667
#
# Disc length: 4652 seconds
#
# Revision: 6
# Processed by: cddbd v1.5.2PL0 Copyright (c) Steve Scherf et al.
# Submitted via: ExactAudioCopy v1.0b1
#
DISCID=04122a10
DTITLE=Eric Clapton - Story
DYEAR=1990
DGENRE=Blues
TTITLE0=Cocaine
TTITLE1=Lay down sally
TTITLE2=Wonderful tonight
TTITLE3=Crossroads
TTITLE4=After midnight
TTITLE5=I shot the sheriff
TTITLE6=Further on up the road (Live)
TTITLE7=Rambling on my mind (Live)
TTITLE8=Layla
TTITLE9=Next time you see her
TTITLE10=Knockin' on heaven's door
TTITLE11=Sunshine of your love
TTITLE12=Tulsa time (Live)
TTITLE13=Let it grow
TTITLE14=Steady rollin man
TTITLE15=Have you ever loved a woman? (Live)
EXTD=
EXTT0=
EXTT1=
EXTT2=
EXTT3=
EXTT4=
EXTT5=
EXTT6=
EXTT7=
EXTT8=
EXTT9=
EXTT10=
EXTT11=
EXTT12=
EXTT13=
EXTT14=
EXTT15=
PLAYORDER=
